<?xml version="1.0" encoding="UTF-8"?>
<svg xmlns="http://www.w3.org/2000/svg" viewBox="373.2554068676615 -270.6784699287749  293.658 293.65799999999996" version="1.0" overflow="visible">
    <defs>
        <g id="ID__#42_Model_Space"/>
        <g id="ID__#42_Paper_Space0"/>
        <g id="ID__#42_Paper_Space"/>
    </defs>
    <g id="draft" transform="matrix(1 0 0 -1 0 0)" stroke-width="0.02%">
        <g id="Defpoints" color="rgb(0,0,0)" stroke="currentColor" fill="none"/>
        <g id="ID_0" color="rgb(0,0,0)" stroke="currentColor" fill="none">
            <path d="M 436.5149943099728 51.43616173780862 A 111.24999999987567 111.24999999987567 0 0  1 440.1303868057731 47.47564875397001 A 3.1999999999998425 3.1999999999998425 0 0  1 444.3567291709783 47.12615474954072 L 472.6990353383918 68.30787512701232 A 10.500000000000284 10.500000000000284 0 0  0 484.6615089476582 68.73036486643127 A 10.499999999999714 10.499999999999714 0 0  0 489.2465898929007 57.67340754726575 L 481.7528388059396 23.09313438924283 A 3.199999999990393 3.199999999990393 0 0  1 483.8264358031291 19.39390320692962 A 111.24999999964542 111.24999999964542 0 0  1 488.9309334519065 17.75048306965624 A 111.24999999987496 111.24999999987496 0 0  1 494.1136101386959 16.37331628453063 A 3.1999999999999074 3.1999999999999074 0 0  1 497.8579863086294 18.36423640977301 L 510.2493488805567 51.50644108369039 A 10.500000000000336 10.500000000000336 0 0  0 520.0844068676658 58.32926358046626 A 10.49999999999968 10.49999999999968 0 0  0 529.9194648547734 51.50644108369085 L 542.3108274267013 18.36423640977324 A 3.1999999999904336 3.1999999999904336 0 0  1 546.0552035966182 16.37331628452699 A 111.24999999964496 111.24999999964496 0 0  1 551.2378802834191 17.75048306965499 A 111.2499999998821 111.2499999998821 0 0  1 556.3423779321859 19.39390320692422 A 3.1999999999998363 3.1999999999998363 0 0  1 558.4159749293913 23.09313438924318 L 550.9222238424297 57.67340754726575 A 10.500000000000309 10.500000000000309 0 0  0 555.5073047876735 68.73036486643235 A 10.49999999999967 10.49999999999967 0 0  0 567.4697783969384 68.307875127013 L 595.8120845643523 47.1261547495414 A 3.199999999990273 3.199999999990273 0 0  1 600.0384269295455 47.47564875395841 A 111.24999999964486 111.24999999964486 0 0  1 603.653819425354 51.43616173780555 A 111.24999999987833 111.24999999987833 0 0  1 607.0594960992712 55.57839451573835 A 3.2000000000000153 3.2000000000000153 0 0  1 606.8039615284724 59.8114569922663 L 581.8043098044172 84.85080623925631 A 10.500000000000334 10.500000000000334 0 0  0 579.6836829043145 96.63139255670552 A 10.499999999999886 10.499999999999886 0 0  0 589.9755712875949 102.7433730817381 L 625.2703390995066 100.2471835576752 A 3.1999999999904842 3.1999999999904842 0 0  1 628.6368138209359 102.8261298147597 A 111.24999999964635 111.24999999964635 0 0  1 629.5370605534758 108.1125541086016 A 111.24999999987627 111.24999999987627 0 0  1 630.1626379719362 113.4384698878227 A 3.1999999999998447 3.1999999999998447 0 0  1 627.6591022538407 116.861396231652 L 593.0907626759813 124.4100051012778 A 10.500000000000522 10.500000000000522 0 0  0 584.937711987681 133.173967498865 A 10.499999999999627 10.499999999999627 0 0  0 590.2914133022937 143.8799076568421 L 621.3328033593341 160.8617715228458 A 3.1999999999903626 3.1999999999903626 0 0  1 622.7705784993191 164.8513728179369 A 111.2499999996441 111.2499999996441 0 0  1 620.6698574918482 169.785306060568 A 111.24999999987543 111.24999999987543 0 0  1 618.3167192446099 174.6039642122973 A 3.200000000000108 3.200000000000108 0 0  1 614.3600372805745 176.1299994945042 L 581.1982134166656 163.7912380065812 A 10.500000000000473 10.500000000000473 0 0  0 569.6012749269996 166.7560803462713 A 10.499999999999726 10.499999999999726 0 0  0 568.3170268330007 178.6569197815941 L 585.249617120041 209.7252152483242 A 3.1999999999905264 3.1999999999905264 0 0  1 584.30220923047 213.8588013594064 A 111.2499999996499 111.2499999996499 0 0  1 579.8674845598748 216.873754607798 A 111.2499999998771 111.2499999998771 0 0  1 575.2827354139552 219.6552652158729 A 3.1999999999998145 3.1999999999998145 0 0  1 571.1291257709829 218.7999040168067 L 549.9024623875644 190.4912417622277 A 10.500000000000423 10.500000000000423 0 0  0 538.54358212695 186.7156475497442 A 10.49999999999978 10.49999999999978 0 0  0 531.0291243201209 196.0329538290108 L 528.4769370609913 231.3237166038667 A 3.199999999990294 3.199999999990294 0 0  1 525.4451414527393 234.2889031471949 A 111.2499999996488 111.2499999996488 0 0  1 520.0844068676668 234.427650047624 A 111.24999999987376 111.24999999987376 0 0  1 514.7236722826062 234.2889031471955 A 3.1999999999999584 3.1999999999999584 0 0  1 511.6918766743369 231.3237166038663 L 509.1396894152079 196.0329538290109 A 10.500000000000478 10.500000000000478 0 0  0 501.6252316083773 186.7156475497434 A 10.499999999999627 10.499999999999627 0 0  0 490.2663513477648 190.4912417622269 L 469.0396879643455 218.799904016806 A 3.199999999990352 3.199999999990352 0 0  1 464.8860783213881 219.6552652158807 A 111.24999999964533 111.24999999964533 0 0  1 460.3013291754581 216.8737546078002 A 111.24999999987388 111.24999999987388 0 0  1 455.8666045048727 213.8588013594157 A 3.199999999999989 3.199999999999989 0 0  1 454.9191966152879 209.7252152483235 L 471.8517869023283 178.6569197815938 A 10.500000000000401 10.500000000000401 0 0  0 470.5675388083285 166.7560803462695 A 10.499999999999677 10.499999999999677 0 0  0 458.9706003186641 163.7912380065804 L 425.8087764547545 176.1299994945031 A 3.199999999990335 3.199999999990335 0 0  1 421.8520944907273 174.6039642123116 A 111.24999999965007 111.24999999965007 0 0  1 419.4989562434832 169.7853060605717 A 111.24999999987658 111.24999999987658 0 0  1 417.3982352360164 164.8513728179516 A 3.199999999999958 3.199999999999958 0 0  1 418.8360103759952 160.8617715228445 L 449.8774004330356 143.8799076568415 A 10.500000000000492 10.500000000000492 0 0  0 455.2311017476482 133.1739674988624 A 10.499999999999707 10.499999999999707 0 0  0 447.0780510593486 124.410005101277 L 412.509711481489 116.8613962316508 A 3.1999999999904234 3.1999999999904234 0 0  1 410.0061757633919 113.4384698878385 A 111.24999999964395 111.24999999964395 0 0  1 410.6317531818532 108.1125541086057 A 111.24999999987632 111.24999999987632 0 0  1 411.5319999143908 102.8261298147754 A 3.1999999999998856 3.1999999999998856 0 0  1 414.8984746358233 100.2471835576741 L 450.1932424477348 102.7433730817372 A 10.500000000000448 10.500000000000448 0 0  0 460.4851308310161 96.6313925567033 A 10.499999999999579 10.499999999999579 0 0  0 458.3645039309131 84.85080623925586 L 433.3648522068581 59.81145699226522 A 3.199999999990431 3.199999999990431 0 0  1 433.1093176360487 55.57839451575092 A 111.24999999964595 111.24999999964595 0 0  1 436.5149943099728 51.43616173780862  z" color="rgb(0,0,0)" stroke="currentColor" id="ID_8E1"/>
            <circle cx="520.0844068676615" cy="123.8494699287749" r="143.95" color="rgb(0,0,0)" stroke="currentColor" id="ID_8E0"/>
        </g>
    </g>
</svg>